<svg xmlns="http://www.w3.org/2000/svg" width="1050" height="144.88" viewBox="0 0 1050 144.88">
  <g id="Just-Vote-wide" transform="translate(-36.47 -38.18)">
    <g id="Group_309" data-name="Group 309" transform="translate(36.47 38.18)">
      <path id="Path_1783" data-name="Path 1783" d="M1329.337,110.475A73.022,73.022,0,0,1,1324,138.358a8.454,8.454,0,0,1-.42.977,71.9,71.9,0,0,1-3.709,7.583,69.726,69.726,0,0,1-26.049,26.492,71.3,71.3,0,0,1-17.1,7.123c-.278.091-.557.165-.835.233a74.3,74.3,0,0,1-18.579,2.295,71.272,71.272,0,0,1-36.443-9.65,69.877,69.877,0,0,1-26.026-26.395,74.832,74.832,0,0,1-.182-72.6,69.8,69.8,0,0,1,26.026-26.395,70.989,70.989,0,0,1,36.625-9.838,73.789,73.789,0,0,1,19.068,2.437c.255.068.511.142.767.233a69.46,69.46,0,0,1,16.676,7.077,70.272,70.272,0,0,1,22.016,20.136.172.172,0,0,1-.091.045c-2.647,1.624-5.22,3.272-7.77,5.032-17.909,12.411-32.916,28.161-47.11,44.815-4.243,4.964-5.243,4.641-9.117-.42-5.521-7.168-11.019-14.427-17.142-21.039-8.952-9.65-15.586-9.116-23.89,1.045-2.783,3.408-2.692,6.265.187,10,12.967,16.909,25.793,33.961,38.317,51.239,5.43,7.492,10.531,7.634,15.887.142,12.8-17.977,25.259-36.3,39.061-53.42A274.954,274.954,0,0,1,1324.1,83.046l.045-.045a66.724,66.724,0,0,1,2.5,7.4,1.355,1.355,0,0,1,.091.324c.21.721.392,1.437.557,2.158A74.128,74.128,0,0,1,1329.337,110.475Z" transform="translate(-532.79 -38.18)" fill="#063e80"/>
      <path id="Path_1784" data-name="Path 1784" d="M1571.043,42.62v62.19h-31.291V183.03h-62.19V104.81H1446.27V76.138a124.309,124.309,0,0,1,22.572-15.609,29.147,29.147,0,0,0,2.55-1.693c1.136-1.437.625-1.948-.67-2.158a20.481,20.481,0,0,0-6.242-.278,81.454,81.454,0,0,0-18.21,4.731V42.62Z" transform="translate(-645.503 -40.098)" fill="#063e80"/>
      <path id="Path_1785" data-name="Path 1785" d="M1796.4,77.279V42.04H1679.82v140.4H1796.4V147.2h-54.471V129.9h37.9V94.665h-37.9V77.279Z" transform="translate(-746.396 -39.848)" fill="#063e80"/>
      <path id="Path_1786" data-name="Path 1786" d="M68.6,133.734q0,11.119-3.857,14.228-3.672,3.127-14.967,3.124a68.659,68.659,0,0,1-13.308-1.1q4.959,15.975,19.744,25.435,14.867,9.363,33.876,9.361,13.862,0,23.958-5.7,10-5.6,13.3-14.865,3.323-9.185,3.311-36.17V42.4H68.6Z" transform="translate(-36.47 -40.003)" fill="#df2b2e"/>
      <path id="Path_1787" data-name="Path 1787" d="M359.853,42.4h-62.06v61.037q0,5.334-.318,9.094a24.743,24.743,0,0,1-1.2,6.151,7.136,7.136,0,0,1-2.386,3.482,6.61,6.61,0,0,1-3.993,1.1c-2.749,0-4.686-1.039-5.782-3.124-1.045-2.2-1.562-6.112-1.562-11.746v-66H220.5v62.23q0,29.564,8.537,45.627a62.1,62.1,0,0,0,25.52,25.344,73.474,73.474,0,0,0,35.534,9.179,71.023,71.023,0,0,0,36.721-9.917,65.735,65.735,0,0,0,14.637-11.519,60.009,60.009,0,0,0,10.287-14.876,75,75,0,0,0,6.106-18.585,118.375,118.375,0,0,0,2.016-22.675V42.4Z" transform="translate(-115.971 -40.003)" fill="#df2b2e"/>
      <path id="Path_1788" data-name="Path 1788" d="M554.143,93.038a99.721,99.721,0,0,1-15.467-6.975q-5.01-3.033-5-6.333a7.544,7.544,0,0,1,2.573-5.828c1.7-1.568,4.5-2.346,8.355-2.346a35.492,35.492,0,0,1,18.636,5.373,57.249,57.249,0,0,1,16.154,15.1l15.415-44.151a103.412,103.412,0,0,0-12.121-3.766q-6.6-1.653-14.4-2.937c-5.209-.852-10.252-1.522-15.149-1.977s-9.73-.687-14.5-.687q-33.237,0-50.126,11.8t-16.892,35.2q0,13.956,7.992,23.589,8.085,9.559,29.735,17.722,8.827,3.408,13,6.384t4.169,7.015a6.807,6.807,0,0,1-2.982,5.646,12.071,12.071,0,0,1-7.481,2.249q-9.091,0-18.812-6.146a51.514,51.514,0,0,1-16.256-16.251L465.83,172.535a149.775,149.775,0,0,0,30.837,8.174,219.9,219.9,0,0,0,33.143,2.386q33.5,0,50.438-11.888t16.938-34.2q0-14.314-7.8-24.049-7.983-9.909-35.245-19.92Z" transform="translate(-221.953 -38.323)" fill="#df2b2e"/>
      <path id="Path_1789" data-name="Path 1789" d="M702.65,104.448h31.212V182.48h62.06V104.448h31.217V42.4H702.65Z" transform="translate(-324.259 -40.003)" fill="#df2b2e"/>
      <path id="Path_1790" data-name="Path 1790" d="M1029.132,42.04l-15.637,46.548h-.363L997.483,42.04h-62l47.752,140.4h60.259l47.655-140.4Z" transform="translate(-424.842 -39.848)" fill="#063e80"/>
    </g>
    <path id="Path_1791" data-name="Path 1791" d="M1341.835,95.332a274.9,274.9,0,0,0-19.925,22.453c-13.8,17.12-26.259,35.443-39.062,53.42-5.356,7.492-10.463,7.356-15.887-.142-12.525-17.279-25.356-34.33-38.318-51.239-2.874-3.732-2.97-6.589-.187-10,8.3-10.162,14.938-10.7,23.89-1.045,6.123,6.612,11.621,13.871,17.142,21.039,3.874,5.055,4.873,5.379,9.116.42,14.194-16.654,29.207-32.4,47.11-44.815,2.55-1.761,5.129-3.408,7.77-5.032A91,91,0,0,1,1351.3,71.51a81.456,81.456,0,0,1,18.21-4.731,20.5,20.5,0,0,1,6.242.278c1.3.21,1.812.721.67,2.158a29.146,29.146,0,0,1-2.55,1.693A124.6,124.6,0,0,0,1351.3,86.516S1344.783,92.435,1341.835,95.332Z" transform="translate(-514.061 -12.297)" fill="#fff"/>
  </g>
</svg>
